<?xml version="1.0" encoding="utf-8"?>
<!-- Generator: Adobe Illustrator 19.0.0, SVG Export Plug-In . SVG Version: 6.00 Build 0)  -->
<svg version="1.1" id="Layer_1" xmlns="http://www.w3.org/2000/svg" xmlns:xlink="http://www.w3.org/1999/xlink" x="0px" y="0px"
	 viewBox="0 0 200 200" style="enable-background:new 0 0 200 200;" xml:space="preserve">
<style type="text/css">
	.st0{fill:#33CCCC;}
</style>
<polygon id="XMLID_3_" class="st0" points="65.9,192.8 84.9,176.1 71.9,168.2 "/>
<path id="XMLID_5_" class="st0" d="M199.4,64.4c-0.6-0.6-1.4-0.9-2.3-0.7L1.6,120.1c-0.8,0.2-1.5,1-1.6,1.8c-0.1,0.9,0.3,1.7,1,2.2
	l42.7,27.4l10.5,46.7c0.2,1,1.1,1.7,2.2,1.7c0,0,0,0,0,0c1,0,1.9-0.7,2.2-1.7l9.6-41.2l71.9,42.6c0.6,0.3,1.2,0.4,1.8,0.2
	c0.6-0.2,1.1-0.7,1.4-1.2l56.5-131.9C200.2,65.9,200,65,199.4,64.4z M62.8,151.8l-6.7,28.7l-7.8-33.7l148.1-80L62.8,151.8z"/>
</svg>
