<?xml version="1.0" encoding="utf-8"?>
<!-- Generator: Adobe Illustrator 19.0.0, SVG Export Plug-In . SVG Version: 6.00 Build 0)  -->
<svg version="1.1" id="Layer_1" xmlns="http://www.w3.org/2000/svg" xmlns:xlink="http://www.w3.org/1999/xlink" x="0px" y="0px"
	 viewBox="0 0 531 552" style="enable-background:new 0 0 531 552;" xml:space="preserve">
<style type="text/css">
	.st0{fill-rule:evenodd;clip-rule:evenodd;fill:#666766;}
	.st1{fill:#191717;}
</style>
<g>
	<path class="st0" d="M266.1,23.9C119.1,23.9,0,143,0,290c0,117.6,76.2,217.3,182,252.5c13.3,2.5,18.2-5.8,18.2-12.8
		c0-6.3-0.2-27.3-0.4-49.5c-74,16.1-89.6-31.4-89.6-31.4C98,418,80.6,409.8,80.6,409.8c-24.1-16.5,1.8-16.2,1.8-16.2
		c26.7,1.9,40.8,27.4,40.8,27.4c23.7,40.7,62.2,28.9,77.4,22.1c2.4-17.2,9.3-28.9,16.9-35.6C158.4,400.9,96.3,378,96.3,276.1
		c0-29,10.4-52.8,27.4-71.4c-2.8-6.7-11.9-33.8,2.6-70.4c0,0,22.3-7.1,73.2,27.3c21.2-5.9,44-8.9,66.6-9c22.6,0.1,45.4,3.1,66.7,9
		c50.8-34.4,73.1-27.3,73.1-27.3c14.5,36.7,5.4,63.7,2.6,70.4c17.1,18.6,27.4,42.4,27.4,71.4c0,102.2-62.2,124.7-121.5,131.3
		c9.5,8.3,18,24.4,18,49.3c0,35.6-0.3,64.3-0.3,73c0,7.1,4.8,15.4,18.3,12.8C456,507.2,532.2,407.5,532.2,290
		C532.2,143,413,23.9,266.1,23.9z"/>
	<path class="st1" d="M100.8,405.9c-0.6,1.3-2.7,1.7-4.6,0.8c-1.9-0.9-3-2.7-2.4-4c0.6-1.4,2.7-1.7,4.6-0.8
		C100.3,402.8,101.4,404.6,100.8,405.9L100.8,405.9z M97.5,403.5"/>
	<path class="st1" d="M111.6,418c-1.3,1.2-3.8,0.6-5.4-1.2c-1.7-1.9-2.1-4.3-0.8-5.5c1.3-1.2,3.7-0.6,5.5,1.2
		C112.5,414.3,112.9,416.8,111.6,418L111.6,418z M109,415.2"/>
	<path class="st1" d="M122,433.3c-1.6,1.1-4.3,0.1-5.9-2.3c-1.6-2.4-1.6-5.2,0-6.3c1.6-1.1,4.3-0.1,5.9,2.2
		C123.7,429.3,123.7,432.1,122,433.3L122,433.3z M122,433.3"/>
	<path class="st1" d="M136.4,448.1c-1.5,1.6-4.6,1.2-6.8-1c-2.3-2.1-3-5.2-1.5-6.8c1.5-1.6,4.6-1.2,6.9,1
		C137.3,443.4,138,446.5,136.4,448.1L136.4,448.1z M136.4,448.1"/>
	<path class="st1" d="M156.2,456.7c-0.6,2.1-3.6,3-6.6,2.1c-3-0.9-5-3.4-4.4-5.5c0.6-2.1,3.6-3.1,6.7-2.1
		C154.9,452.1,156.9,454.6,156.2,456.7L156.2,456.7z M156.2,456.7"/>
	<path class="st1" d="M178,458.3c0.1,2.2-2.5,4-5.6,4.1c-3.2,0.1-5.8-1.7-5.8-3.9c0-2.2,2.5-4,5.7-4.1
		C175.4,454.3,178,456.1,178,458.3L178,458.3z M178,458.3"/>
	<path class="st1" d="M198.3,454.8c0.4,2.1-1.8,4.3-5,4.9c-3.1,0.6-5.9-0.8-6.3-2.9c-0.4-2.2,1.9-4.4,4.9-5
		C195.1,451.4,197.9,452.7,198.3,454.8L198.3,454.8z M198.3,454.8"/>
</g>
</svg>
