<?xml version="1.0" encoding="utf-8"?>
<!-- Generator: Adobe Illustrator 19.0.0, SVG Export Plug-In . SVG Version: 6.00 Build 0)  -->
<svg version="1.1" id="Layer_1" xmlns="http://www.w3.org/2000/svg" xmlns:xlink="http://www.w3.org/1999/xlink" x="0px" y="0px"
	 viewBox="0 0 200 200" style="enable-background:new 0 0 200 200;" xml:space="preserve">
<style type="text/css">
	.st0{fill:#33CCCC;}
</style>
<g id="_x31__1_">
	<path class="st0" d="M124.2,198.5l43.5,0c0,0,7.3,0.5,7.3-7.6V95.1l7.4,6.1c0,0,3.3,3.1,6.1-0.7l10.6-14.8c0,0,3.8-3.7-1.1-7.2
		L104.2,1.6c-4.4-3.6-8.4,0.1-8.4,0.1L1.9,78.6c0,0-3.7,3.1-0.8,7.1l10.4,14.5c0,0,2.8,4.3,6.1,1.1l7.7-6.3v94.7
		c0,0-0.5,9.1,7.6,8.7l43.1,0l0-94.1c0-3.9,2.9-7,6.5-7h35.3c3.6,0,6.5,3.1,6.5,7L124.2,198.5z"/>
</g>
</svg>
