<?xml version="1.0" encoding="utf-8"?>
<!-- Generator: Adobe Illustrator 19.0.0, SVG Export Plug-In . SVG Version: 6.00 Build 0)  -->
<svg version="1.1" id="LinkedIn_alt" xmlns="http://www.w3.org/2000/svg" xmlns:xlink="http://www.w3.org/1999/xlink" x="0px"
	 y="0px" viewBox="156 -156 512 512" style="enable-background:new 156 -156 512 512;" xml:space="preserve">
<style type="text/css">
	.st0{fill:#666666;}
</style>
<path class="st0" d="M207.3,49.7h90v270.9h-90L207.3,49.7L207.3,49.7z M252.9-80.9c-30.8,0-50.9,20.2-50.9,46.8
	c0,26,19.5,46.8,49.8,46.8h0.6c31.4,0,50.9-20.8,50.9-46.8C302.7-60.8,283.7-80.9,252.9-80.9z M518.3,43.3
	c-47.8,0-69.2,26.3-81.1,44.7V49.7h-90c1.2,25.4,0,270.9,0,270.9h90V169.1c0-8.1,0.6-16.2,3-22c6.5-16.2,21.3-32.9,46.2-32.9
	c32.6,0,45.6,24.9,45.6,61.2v144.9h90V165.1C622,81.9,577.6,43.3,518.3,43.3z"/>
</svg>
