<?xml version="1.0" encoding="utf-8"?>
<!-- Generator: Adobe Illustrator 19.0.0, SVG Export Plug-In . SVG Version: 6.00 Build 0)  -->
<svg version="1.1" id="Google_alt" xmlns="http://www.w3.org/2000/svg" xmlns:xlink="http://www.w3.org/1999/xlink" x="0px" y="0px"
	 viewBox="110 -110 420 420" style="enable-background:new 110 -110 420 420;" xml:space="preserve">
<style type="text/css">
	.st0{fill:#32D6BE;}
</style>
<title></title>
<path class="st0" d="M452.8-9.7c0,13.4-10.9,24.3-24.3,24.3S404.2,3.7,404.2-9.7S415.1-34,428.5-34l0,0
	C441.9-34,452.8-23.1,452.8-9.7z M530,100v0.3l-1.4,88.1c-0.7,66.1-54.1,119.5-120.2,120.2L320,310h-0.3l-88.1-1.4
	c-66.1-0.7-119.5-54.1-120.2-120.2L110,100v-0.3l1.4-88.1c0.8-66.1,54.1-119.5,120.2-120.2L320-110h0.3l88.1,1.4
	c66.1,0.7,119.5,54.1,120.2,120.2L530,100z M490.9,100l-1.4-87.8C489-32.7,452.7-69,407.8-69.5L320-70.9l-87.8,1.4
	C187.3-69,151-32.7,150.5,12.2l-1.4,87.8l1.4,87.8c0.5,44.9,36.8,81.2,81.7,81.7l87.8,1.4l87.8-1.4c44.9-0.5,81.2-36.8,81.7-81.7
	L490.9,100z M427.8,100c0,59.6-48.3,107.8-107.8,107.8S212.2,159.6,212.2,100S260.4-7.8,320-7.8l0,0C379.5-7.8,427.8,40.5,427.8,100
	z M388.7,100c0-38-30.8-68.7-68.7-68.7S251.3,62,251.3,100s30.8,68.7,68.7,68.7l0,0C357.9,168.7,388.7,137.9,388.7,100L388.7,100z"
	/>
</svg>
